Coordinates
version=1
nRows=34
nColumns=33
inDegrees=yes

Units are S.I. units (second, meters, Newtons, ...)
Angles are in degrees.

endheader
time	ground_thorax_rot_x	ground_thorax_rot_y	ground_thorax_rot_z	ground_thorax_tx	ground_thorax_ty	ground_thorax_tz	clav_prot_r	clav_elev_r	scapula_abduction_r	scapula_elevation_r	scapula_upward_rot_r	scapula_winging_r	shoulder_elv_r	plane_of_elev_r	axial_rot_r	elbow_flexion_r	pro_sup_r	wrist_flex_r	wrist_dev_r	clav_prot_l	clav_elev_l	scapula_abduction_l	scapula_elevation_l	scapula_upward_rot_l	scapula_winging_l	shoulder_elv_l	plane_of_elev_l	axial_rot_l	elbow_flexion_l	pro_sup_l	wrist_flex_l	wrist_dev_l	
3.3300	24.617367	32.445005	47.935731	-65.929200	773.862604	5.845165	13.910678	36.209447	32.373972	45.000000	-45.000000	-4756.843201	-1553.735074	146.715377	180.000000	2163.402157	52.843878	20.759540	13.601564	6.403956	-45.000000	-35.743124	45.000000	-45.000000	1892.308244	-1901.874932	143.607225	136.616769	726.051447	18.947701	10.346839	-17.749721	
3.3400	24.507789	32.537689	48.080394	-65.902341	773.853756	5.984113	13.856140	36.180429	32.297522	45.000000	-45.000000	-4756.861722	-1553.714830	146.720478	180.000000	2163.410329	53.014082	20.795440	13.565807	6.515391	-45.000000	-35.741633	45.000000	-45.000000	1892.375564	-1901.890228	143.630136	136.240151	726.123047	19.788347	10.211638	-17.844641	
3.3500	24.428731	32.604489	48.182016	-65.900832	773.841841	6.122114	13.812762	36.106541	32.225798	45.000000	-45.000000	-4756.850658	-1553.662228	146.720925	180.000000	2163.394822	53.165044	20.835177	13.473326	6.686114	-45.000000	-35.726020	45.000000	-45.000000	1892.468479	-1901.887130	143.613713	135.834838	726.195287	20.607542	10.122330	-17.930367	
3.3600	24.382359	32.645542	48.229556	-65.953250	773.825188	6.255305	13.782101	36.076842	32.192252	45.000000	-45.000000	-4756.854788	-1553.629342	146.712183	180.000000	2163.386548	53.281775	20.863598	13.427470	6.763983	-45.000000	-35.720354	45.000000	-45.000000	1892.525118	-1901.883802	143.608665	135.612717	726.254996	21.280507	10.044103	-18.007602	
3.3700	24.344698	32.683752	48.258586	-66.064271	773.801712	6.383668	13.765654	36.076404	32.182516	45.000000	-45.000000	-4756.883030	-1553.615735	146.706938	180.000000	2163.381066	53.370381	20.884798	13.421446	6.790257	-45.000000	-35.722981	45.000000	-45.000000	1892.550130	-1901.875234	143.625614	135.506002	726.301885	21.837781	9.964087	-18.074581	
3.3800	24.335954	32.701435	48.238773	-66.241676	773.769426	6.505401	13.757048	36.076589	32.192071	45.000000	-45.000000	-4756.909944	-1553.601336	146.699397	180.000000	2163.384913	53.424612	20.904590	13.410057	6.795153	-45.000000	-35.724320	45.000000	-45.000000	1892.567864	-1901.860965	143.625395	135.477035	726.343550	22.282714	9.913826	-18.130854	
3.3900	24.324060	32.727311	48.216936	-66.486318	773.726751	6.619698	13.756272	36.099072	32.206292	45.000000	-45.000000	-4756.960621	-1553.601539	146.692118	180.000000	2163.399534	53.458418	20.921403	13.430975	6.772029	-45.000000	-35.733459	45.000000	-45.000000	1892.566575	-1901.843725	143.640475	135.507094	726.379058	22.629936	9.856356	-18.178543	
3.4000	24.332169	32.739727	48.162080	-66.794874	773.672986	6.725119	13.751626	36.099318	32.225436	45.000000	-45.000000	-4756.997559	-1553.591177	146.689897	180.000000	2163.425053	53.470555	20.942787	13.417674	6.768858	-45.000000	-35.736049	45.000000	-45.000000	1892.580701	-1901.821540	143.622692	135.532162	726.415934	22.905650	9.832564	-18.218032	
3.4100	24.332186	32.762732	48.114984	-67.163366	773.608455	6.820499	13.749872	36.116146	32.235623	45.000000	-45.000000	-4757.049131	-1553.586570	146.680744	180.000000	2163.453152	53.476706	20.961809	13.430645	6.753336	-45.000000	-35.742088	45.000000	-45.000000	1892.588342	-1901.799401	143.612210	135.579350	726.447983	23.107496	9.800346	-18.250901	
3.4200	24.352353	32.768968	48.042711	-67.587138	773.534524	6.904647	13.742676	36.111246	32.250899	45.000000	-45.000000	-4757.082711	-1553.568352	146.671225	180.000000	2163.479022	53.471327	20.982223	13.412253	6.756877	-45.000000	-35.734256	45.000000	-45.000000	1892.617031	-1901.772643	143.570607	135.627323	726.481957	23.246191	9.799418	-18.277431	
3.4300	24.368936	32.779383	47.973014	-68.061323	773.453532	6.977031	13.741836	36.124024	32.252743	45.000000	-45.000000	-4757.127912	-1553.547929	146.643603	180.000000	2163.498558	53.465289	21.000087	13.423619	6.749058	-45.000000	-35.737830	45.000000	-45.000000	1892.640671	-1901.745332	143.536197	135.701083	726.512207	23.321763	9.792363	-18.299175	
3.4400	24.397061	32.778816	47.894924	-68.581073	773.368717	7.036747	13.734011	36.119695	32.272768	45.000000	-45.000000	-4757.165023	-1553.527288	146.633389	180.000000	2163.512987	53.449702	21.017794	13.414555	6.752452	-45.000000	-35.734132	45.000000	-45.000000	1892.674431	-1901.713501	143.489673	135.791338	726.537131	23.344763	9.806886	-18.315727	
3.4500	24.421067	32.782602	47.820745	-69.141806	773.284048	7.083114	13.734862	36.133653	32.278099	45.000000	-45.000000	-4757.215212	-1553.504409	146.605364	180.000000	2163.521897	53.431171	21.034003	13.438862	6.744822	-45.000000	-35.744209	45.000000	-45.000000	1892.698938	-1901.680774	143.452116	135.914097	726.555384	23.315967	9.813466	-18.328214	
3.4600	24.454372	32.775820	47.748403	-69.739475	773.204004	7.115821	13.726412	36.130909	32.309776	45.000000	-45.000000	-4757.261957	-1553.489307	146.603066	180.000000	2163.530102	53.398650	21.049262	13.443484	6.748364	-45.000000	-35.739279	45.000000	-45.000000	1892.733271	-1901.642503	143.406349	136.063329	726.568847	23.245697	9.835697	-18.337600	
3.4700	24.492397	32.766476	47.670496	-70.370158	773.133292	7.135258	13.724620	36.141718	32.328729	45.000000	-45.000000	-4757.315716	-1553.467549	146.586630	180.000000	2163.545406	53.355532	21.066146	13.469748	6.746776	-45.000000	-35.747649	45.000000	-45.000000	1892.763707	-1901.606048	143.359822	136.241680	726.582555	23.136462	9.855845	-18.345815	
3.4800	24.542599	32.743528	47.588584	-71.030367	773.076484	7.142827	13.715041	36.137498	32.367698	45.000000	-45.000000	-4757.366960	-1553.451954	146.585442	180.000000	2163.562333	53.295402	21.083629	13.478966	6.754364	-45.000000	-35.742657	45.000000	-45.000000	1892.802143	-1901.563275	143.301627	136.443868	726.593836	22.997743	9.889854	-18.353536	
3.4900	24.597014	32.719175	47.499938	-71.716941	773.037746	7.141012	13.715609	36.150510	32.388908	45.000000	-45.000000	-4757.425469	-1553.426788	146.566858	180.000000	2163.589551	53.224216	21.105047	13.515170	6.752636	-45.000000	-35.753664	45.000000	-45.000000	1892.831019	-1901.520243	143.244999	136.672711	726.609528	22.834159	9.915813	-18.362220	
3.5000	24.666061	32.678642	47.398908	-72.427367	773.020819	7.132937	13.711821	36.150576	32.420610	45.000000	-45.000000	-4757.484291	-1553.403223	146.545615	180.000000	2163.619715	53.137764	21.128556	13.537430	6.757165	-45.000000	-35.757420	45.000000	-45.000000	1892.865748	-1901.469017	143.172366	136.916511	726.627132	22.657381	9.953039	-18.373408	
3.5100	24.737988	32.638020	47.296353	-73.159896	773.029051	7.121816	13.716933	36.167912	32.445469	45.000000	-45.000000	-4757.549435	-1553.372586	146.520901	180.000000	2163.663946	53.042013	21.157394	13.583344	6.751991	-45.000000	-35.776213	45.000000	-45.000000	1892.888284	-1901.416287	143.108693	137.183503	726.650635	22.470543	9.976914	-18.386553	
3.5200	24.826629	32.584681	47.178607	-73.914216	773.065639	7.110170	13.718873	36.173494	32.482284	45.000000	-45.000000	-4757.614931	-1553.338514	146.493740	180.000000	2163.707574	52.934961	21.188189	13.615589	6.753080	-45.000000	-35.794134	45.000000	-45.000000	1892.913893	-1901.358109	143.031197	137.458274	726.677148	22.284055	10.009334	-18.403204	
3.5300	24.921038	32.529866	47.056172	-74.691785	773.133714	7.099428	13.726723	36.191156	32.519759	45.000000	-45.000000	-4757.685320	-1553.298384	146.465461	180.000000	2163.759841	52.822562	21.224598	13.664625	6.748383	-45.000000	-35.819936	45.000000	-45.000000	1892.932319	-1901.294151	142.955783	137.749763	726.711980	22.098843	10.027295	-18.422517	
3.5400	25.035370	32.461313	46.911223	-75.495733	773.236371	7.089747	13.731302	36.192904	32.569549	45.000000	-45.000000	-4757.757729	-1553.255414	146.430485	180.000000	2163.813971	52.702286	21.262959	13.692866	6.752465	-45.000000	-35.842621	45.000000	-45.000000	1892.958127	-1901.222787	142.858514	138.043313	726.755039	21.922530	10.053819	-18.446494	
3.5500	25.156021	32.390244	46.759354	-76.330468	773.376185	7.080590	13.740001	36.204491	32.623174	45.000000	-45.000000	-4757.835685	-1553.208429	146.395087	180.000000	2163.878603	52.580163	21.308430	13.734238	6.752435	-45.000000	-35.866992	45.000000	-45.000000	1892.979926	-1901.142558	142.759780	138.352437	726.808253	21.753130	10.064255	-18.473334	
3.5600	25.295205	32.306817	46.581570	-77.201359	773.554883	7.071241	13.747768	36.204513	32.683613	45.000000	-45.000000	-4757.917088	-1553.156121	146.348543	180.000000	2163.949832	52.453853	21.356039	13.758530	6.756940	-45.000000	-35.893707	45.000000	-45.000000	1893.005918	-1901.053642	142.642993	138.663499	726.873131	21.595760	10.079290	-18.505248	
3.5700	25.440078	32.218411	46.392140	-78.114138	773.772880	7.061368	13.759558	36.214556	32.744808	45.000000	-45.000000	-4758.003524	-1553.097912	146.294016	180.000000	2164.029647	52.329103	21.411739	13.798767	6.755733	-45.000000	-35.922109	45.000000	-45.000000	1893.028461	-1900.952958	142.523253	138.989137	726.945602	21.447590	10.077511	-18.539596	
3.5800	25.600042	32.117483	46.181319	-79.074696	774.029271	7.051143	13.766760	36.212544	32.823887	45.000000	-45.000000	-4758.091720	-1553.042549	146.245534	180.000000	2164.123104	52.200135	21.468187	13.817418	6.758868	-45.000000	-35.953005	45.000000	-45.000000	1893.055139	-1900.842620	142.393558	139.320015	727.030587	21.310114	10.078396	-18.578842	
3.5900	25.763620	32.017283	45.964373	-80.088407	774.321687	7.041401	13.777393	36.222164	32.904853	45.000000	-45.000000	-4758.181959	-1552.974823	146.198572	180.000000	2164.222309	52.072351	21.530349	13.853263	6.756594	-45.000000	-35.986333	45.000000	-45.000000	1893.074591	-1900.728379	142.270448	139.669088	727.118070	21.178376	10.063352	-18.619116	
3.6000	25.943575	31.909905	45.726807	-81.160451	774.646711	7.033525	13.783828	36.222714	33.002032	45.000000	-45.000000	-4758.272889	-1552.897250	146.159553	180.000000	2164.329150	51.940076	21.591199	13.873318	6.757986	-45.000000	-36.022493	45.000000	-44.999999	1893.094182	-1900.615495	142.143601	140.024152	727.210511	21.052000	10.049919	-18.662287	
3.6100	26.133447	31.799550	45.466834	-82.295904	774.999989	7.029803	13.796612	36.234691	33.086039	45.000000	-45.000000	-4758.365132	-1552.793406	146.098110	180.000000	2164.435274	51.809301	21.658911	13.914988	6.753537	-45.000000	-36.062147	45.000000	-44.999999	1893.108595	-1900.497637	142.010883	140.391232	727.303560	20.925415	10.024505	-18.706363	
3.6200	26.340951	31.675676	45.174948	-83.499839	775.376802	7.033375	13.804426	36.237433	33.182775	45.000000	-45.000000	-4758.458701	-1552.682452	146.036934	180.000000	2164.554606	51.673765	21.728135	13.942969	6.750036	-45.000000	-36.103403	45.000000	-44.999998	1893.125123	-1900.366935	141.864624	140.765371	727.405347	20.796277	9.999495	-18.753816	
3.6300	26.560054	31.545950	44.853639	-84.777977	775.771733	7.049331	13.817758	36.250522	33.266169	45.000000	-45.000000	-4758.550622	-1552.542834	145.960197	180.000000	2164.684751	51.537471	21.805156	13.988280	6.739110	-45.000000	-36.149238	45.000000	-44.999996	1893.134188	-1900.222452	141.709733	141.158944	727.509367	20.658938	9.964753	-18.801633	
3.6400	26.800245	31.396866	44.492237	-86.136066	776.180395	7.082849	13.825878	36.255131	33.360082	45.000000	-45.000000	-4758.642251	-1552.391121	145.882467	180.000000	2164.837522	51.394590	21.885320	14.021068	6.727974	-45.000000	-36.196907	45.000000	-44.999994	1893.144384	-1900.060034	141.538040	141.569039	727.619546	20.511431	9.931045	-18.851322	
3.6500	27.054064	31.234859	44.098781	-87.579629	776.600567	7.137873	13.838138	36.268599	33.445329	45.000000	-45.000000	-4758.728754	-1552.214724	145.800002	180.000000	2165.017518	51.246608	21.973392	14.062120	6.709313	-45.000000	-36.248793	45.000000	-44.999989	1893.148221	-1899.879309	141.359409	142.008277	727.733806	20.348784	9.890670	-18.900639	
3.6600	27.325669	31.052966	43.673240	-89.111384	777.035050	7.212821	13.846617	36.273035	33.543329	45.000000	-45.000000	-4758.815430	-1552.031841	145.724778	180.000000	2165.226765	51.088357	22.062240	14.085367	6.692593	-45.000000	-36.299633	45.000000	-44.999980	1893.154782	-1899.685136	141.170275	142.473228	727.851217	20.170394	9.853592	-18.949764	
